<svg width="122" height="58" viewBox="0 0 122 58" fill="none" xmlns="http://www.w3.org/2000/svg">
<path d="M7.71539 45.6277C6.91684 43.2688 6.22584 40.809 5.64241 38.2485C5.05597 35.6726 4.56428 33.1737 4.16735 30.7516C4.04445 30.8554 3.93538 30.9485 3.84012 31.031C3.74487 31.1134 3.62059 31.1697 3.46728 31.1999C3.35996 31.221 3.25126 31.1946 3.14118 31.1207C3.03109 31.0468 2.96247 30.9409 2.93533 30.8029L2.92175 30.7339C2.91874 30.7186 2.92188 30.6941 2.93117 30.6604C3.02667 30.4983 3.12556 30.232 3.22784 29.8616C3.34545 29.4881 3.47224 29.1208 3.60819 28.7596C3.74113 28.3831 3.87546 28.0541 4.01117 27.7726C4.14386 27.4758 4.27919 27.3138 4.41717 27.2866C4.55515 27.2595 4.66235 27.2782 4.73875 27.3428C4.82747 27.389 4.90388 27.4536 4.96797 27.5366C5.03207 27.6195 5.09917 27.7178 5.1693 27.8314C5.25174 27.9266 5.35265 27.9944 5.47203 28.0346C5.87767 27.6681 6.33684 27.3309 6.84954 27.023C7.36225 26.7151 7.88702 26.4686 8.42385 26.2833C8.97602 26.095 9.51876 25.9803 10.0521 25.9391C10.5977 25.8795 11.1063 25.9148 11.5778 26.0449C12.0463 26.1598 12.4715 26.3787 12.8536 26.7016C13.2356 27.0246 13.5299 27.4683 13.7365 28.0328C13.869 28.787 13.787 29.5436 13.4904 30.3027C13.2062 31.0433 12.8041 31.7515 12.2841 32.4271C11.7765 33.0843 11.2046 33.6985 10.5685 34.2695C9.92937 34.8252 9.33335 35.3167 8.78044 35.744C8.24286 36.1683 7.79286 36.5116 7.43045 36.774C7.08338 37.0334 6.92818 37.1754 6.96488 37.2L8.58926 45.4558C8.6134 45.5785 8.57633 45.6733 8.47806 45.7404C8.37979 45.8076 8.28467 45.8502 8.19268 45.8683C8.02404 45.9014 7.86494 45.8213 7.71539 45.6277ZM5.46266 29.5652C5.50415 30.0188 5.53935 30.5215 5.56827 31.0731C5.60951 31.6065 5.6706 32.1598 5.75155 32.7331C5.82948 33.291 5.93657 33.8353 6.07281 34.3658C6.22438 34.8933 6.42672 35.3552 6.67982 35.7512C7.28174 35.3302 7.90829 34.8726 8.55947 34.3782C9.20764 33.8684 9.81609 33.3188 10.3848 32.7291C10.9536 32.1395 11.4443 31.5174 11.8569 30.8629C12.2819 30.1901 12.5568 29.4831 12.6817 28.7419C12.6093 28.374 12.4095 28.0868 12.0823 27.8805C11.7704 27.6712 11.4062 27.5199 10.9897 27.4267C10.5733 27.3334 10.152 27.2969 9.72603 27.317C9.31234 27.3188 8.97518 27.3453 8.71455 27.3966C8.56124 27.4267 8.31733 27.5225 7.98281 27.6839C7.66061 27.8269 7.32145 28.0051 6.96532 28.2185C6.62151 28.4135 6.29906 28.6362 5.99797 28.8866C5.71222 29.1339 5.53378 29.3601 5.46266 29.5652ZM18.2369 42.6499C18.2054 41.9235 18.101 41.0284 17.9235 39.9645C17.7613 38.8976 17.555 37.7678 17.3043 36.575C17.0691 35.3792 16.8032 34.1495 16.5069 32.8861C16.2105 31.6227 15.9124 30.4313 15.6125 29.3118C15.3096 28.1771 15.0155 27.168 14.7302 26.2846C14.4603 25.3982 14.2204 24.7049 14.0105 24.2047C14.1304 24.0856 14.2318 23.994 14.3147 23.9299C14.41 23.8475 14.5266 23.7927 14.6646 23.7655C14.7719 23.7444 14.8684 23.7493 14.9541 23.7802C15.0368 23.7958 15.1132 23.8604 15.1833 23.974C16.0812 26.9185 16.8839 29.9057 17.5915 32.9355C18.3144 35.9622 19.0037 38.9797 19.6592 41.9878C19.6864 42.1258 19.7241 42.3174 19.7724 42.5627C19.8176 42.7927 19.8341 42.9169 19.8218 42.9352C19.6282 43.0847 19.4472 43.1761 19.2785 43.2093C19.1069 43.2271 18.9445 43.2113 18.7914 43.1618C18.6354 43.097 18.5084 43.0184 18.4107 42.9262C18.3129 42.834 18.255 42.7419 18.2369 42.6499ZM26.5435 39.4628C26.5184 39.6589 26.4148 39.942 26.2329 40.3122C26.0632 40.6641 25.8491 41.0327 25.5905 41.418C25.3289 41.7879 25.0459 42.1303 24.7415 42.4449C24.4495 42.7413 24.1732 42.9151 23.9126 42.9663C23.422 43.0629 22.9704 42.9128 22.558 42.5163C22.1609 42.1167 21.8071 41.5732 21.4967 40.8858C21.1863 40.1984 20.9144 39.4238 20.6812 38.562C20.4449 37.6849 20.2361 36.8262 20.0549 35.986C19.8736 35.1458 19.7152 34.3808 19.5794 33.6909C19.4437 33.001 19.3181 32.4843 19.2027 32.1407C19.2339 31.9753 19.2925 31.8683 19.3784 31.8195C19.4797 31.7677 19.5993 31.7283 19.7373 31.7011C19.86 31.677 19.9703 31.6712 20.0683 31.6837C20.1817 31.6933 20.2917 31.7672 20.3986 31.9054C20.4317 32.0741 20.4876 32.3577 20.566 32.7563C20.6597 33.1519 20.7717 33.5996 20.9019 34.0995C21.0291 34.5841 21.1623 35.0993 21.3016 35.6452C21.4378 36.1757 21.5619 36.6848 21.6737 37.1724C21.8009 37.6569 21.9114 38.097 22.0052 38.4926C22.1112 38.8698 22.19 39.1489 22.2416 39.3299C22.278 39.4342 22.328 39.6075 22.3916 39.8498C22.4706 40.089 22.5602 40.3421 22.6605 40.609C22.7731 40.8576 22.8888 41.0817 23.0077 41.2812C23.1419 41.4777 23.2795 41.5701 23.4205 41.5583C23.6505 41.513 23.8608 41.3681 24.0516 41.1236C24.2577 40.876 24.4455 40.5763 24.6152 40.2244C24.7848 39.8726 24.9331 39.493 25.06 39.0859C25.1869 38.6787 25.2938 38.2914 25.3808 37.924C25.48 37.5382 25.5408 37.1998 25.5632 36.9087C25.6009 36.6147 25.6153 36.4048 25.6065 36.2791C25.5859 36.0125 25.5442 35.6385 25.4813 35.1572C25.4155 34.6606 25.3359 34.1348 25.2426 33.5799C25.1494 33.0249 25.0545 32.5022 24.958 32.0116C24.8768 31.518 24.8105 31.1408 24.7592 30.8802L26.0376 30.7003C26.2973 31.9391 26.5113 33.0675 26.6798 34.0854C26.8452 35.0879 27.023 36.0323 27.2133 36.9185C27.4006 37.7893 27.637 38.6266 27.9225 39.4304C28.2081 40.2341 28.5993 41.0489 29.0962 41.8748C29.0593 41.9298 28.9793 42.0092 28.8564 42.113C28.7366 42.2322 28.646 42.2978 28.5846 42.3098C28.2014 42.3852 27.9151 42.3062 27.7258 42.0727C27.5549 41.8516 27.4133 41.5769 27.3009 41.2486C27.2009 40.9021 27.1024 40.5631 27.0053 40.2319C26.9206 39.8823 26.7667 39.6259 26.5435 39.4628ZM32.1057 40.781C32.1087 40.7963 32.2516 40.6727 32.5344 40.41C32.8324 40.1443 33.1721 39.8068 33.5533 39.3974C33.9469 38.9696 34.3436 38.5173 34.7435 38.0405C35.1403 37.5484 35.4573 37.0959 35.6946 36.6829C35.9318 36.27 36.034 35.9394 36.001 35.691C35.9804 35.4244 35.7403 35.2965 35.2806 35.3073C34.7136 35.3392 34.2475 35.4389 33.8823 35.6063C33.5325 35.7707 33.2163 35.9444 32.9338 36.1273C32.6513 36.3103 32.3827 36.4826 32.1278 36.6442C31.8883 36.8028 31.6046 36.8985 31.2766 36.9311C30.602 37.0639 30.0937 36.9489 29.7516 36.5862C29.4219 36.2052 29.1861 35.6545 29.0443 34.9339C28.9025 34.2133 28.9293 33.4994 29.1245 32.7922C29.3168 32.0696 29.6191 31.4209 30.0315 30.8461C30.4439 30.2713 30.9526 29.7811 31.5576 29.3754C32.1595 28.9544 32.8054 28.676 33.4953 28.5403C33.7712 28.486 34.0134 28.4622 34.2218 28.469C34.4301 28.4758 34.5644 28.6325 34.6248 28.9391C34.667 29.1537 34.6157 29.3788 34.471 29.6143C34.3232 29.8345 34.1343 29.9672 33.9044 30.0124C33.889 30.0154 33.8492 30.0153 33.7849 30.0121C33.7175 29.9935 33.6486 29.9672 33.5783 29.9333C33.5079 29.8993 33.4405 29.8807 33.3762 29.8775C33.3088 29.8589 33.2675 29.8511 33.2522 29.8541C32.7344 29.8127 32.2727 29.9752 31.8671 30.3416C31.4615 30.7081 31.1214 31.1651 30.847 31.7128C30.5849 32.2421 30.4008 32.8038 30.2948 33.398C30.1857 33.9768 30.1734 34.4808 30.2579 34.9101C30.291 35.0787 30.3489 35.2107 30.4313 35.3059C30.5261 35.3828 30.6316 35.4337 30.748 35.4586C30.8797 35.4805 31.016 35.4855 31.157 35.4737C31.3103 35.4435 31.4636 35.4134 31.617 35.3832C31.9236 35.3229 32.2211 35.2165 32.5097 35.0642C32.8135 34.9089 33.099 34.7412 33.3662 34.5613C33.6487 34.3783 33.9342 34.2106 34.2227 34.0583C34.5266 33.903 34.8471 33.7922 35.1844 33.7258C35.3377 33.6956 35.5154 33.7084 35.7175 33.7642C35.9165 33.8047 36.1093 33.8941 36.2958 34.0326C36.4793 34.1558 36.6458 34.3141 36.7953 34.5076C36.9419 34.6858 37.0469 34.896 37.1105 35.1383C37.2447 35.3349 37.2699 35.6245 37.186 36.0073C37.1174 36.3871 36.9766 36.8049 36.7638 37.2608C36.5509 37.7167 36.2782 38.1924 35.9457 38.6878C35.6102 39.1678 35.2687 39.6172 34.9211 40.036C34.5705 40.4394 34.2155 40.7799 33.8561 41.0576C33.4997 41.3507 33.1821 41.5167 32.9031 41.5557C32.5965 41.616 32.3944 41.5602 32.2969 41.3883C32.2147 41.2134 32.151 41.011 32.1057 40.781ZM53.7902 32.5014C53.7063 32.8842 53.5869 33.3297 53.4321 33.8379C53.2927 34.3431 53.1027 34.8343 52.8622 35.3116C52.637 35.7858 52.3461 36.2093 51.9895 36.5821C51.6328 36.9548 51.2016 37.191 50.6956 37.2905C50.4657 37.3357 50.2772 37.3489 50.1302 37.3301C49.9954 37.2929 49.8639 37.2312 49.7354 37.145C49.6223 37.0558 49.5047 36.9436 49.3826 36.8084C49.2757 36.6701 49.1429 36.5211 48.9841 36.3613C48.7902 35.6191 48.6012 34.8202 48.417 33.9647C48.245 33.0908 48.1206 32.2156 48.0436 31.339C47.9637 30.447 47.9556 29.5966 48.0194 28.7878C48.0986 27.976 48.2847 27.2626 48.5777 26.6476C48.8861 26.0296 49.3242 25.5452 49.8922 25.1946C50.4602 24.844 51.2008 24.6824 52.1138 24.7097C52.0754 24.2714 51.9699 23.695 51.7975 22.9805C51.625 22.2659 51.4297 21.5161 51.2116 20.7309C50.9934 19.9458 50.7812 19.1913 50.5751 18.4675C50.366 17.7283 50.207 17.1226 50.0981 16.6504C50.071 16.5124 50.1127 16.4007 50.2233 16.3152C50.3462 16.2114 50.4828 16.1368 50.6331 16.0913C50.7834 16.0458 50.929 16.0171 51.07 16.0053C51.2263 15.9905 51.3305 15.9939 51.3825 16.0155C51.7229 17.9072 52.0802 19.7638 52.4545 21.5852C52.8258 23.3912 53.1971 25.1973 53.5684 27.0033C53.952 28.791 54.334 30.571 54.7146 32.3434C55.0952 34.1158 55.4604 35.8912 55.8104 37.6696C55.8435 37.8382 55.8629 38.0175 55.8684 38.2075C55.8923 38.4099 55.7816 38.5352 55.5363 38.5834C55.4443 38.6015 55.3463 38.589 55.2423 38.5457C55.1412 38.5178 55.0648 38.4533 55.013 38.352L53.7902 32.5014ZM51.4892 26.027C51.0079 26.0898 50.601 26.3689 50.2685 26.8643C49.9483 27.3414 49.6983 27.932 49.5184 28.6362C49.3538 29.3374 49.2564 30.0971 49.2263 30.9152C49.1931 31.7179 49.2244 32.4841 49.3202 33.2137C49.4283 33.925 49.598 34.5445 49.8292 35.0723C50.0758 35.5971 50.3873 35.9259 50.7638 36.0588C51.1011 35.9925 51.3898 35.8003 51.6298 35.4824C51.8668 35.1491 52.0672 34.7514 52.231 34.2892C52.3949 33.827 52.519 33.3248 52.6035 32.7827C52.6849 32.2252 52.7402 31.6968 52.7693 31.1974C52.8138 30.695 52.8289 30.2461 52.8149 29.8508C52.8131 29.4371 52.7926 29.1306 52.7534 28.9313C52.7232 28.778 52.6826 28.5312 52.6316 28.1909C52.5805 27.8506 52.5065 27.5148 52.4095 27.1836C52.3125 26.8523 52.1847 26.5669 52.0261 26.3274C51.8828 26.0849 51.7038 25.9847 51.4892 26.027ZM56.0543 27.2547C56.0148 27.1351 55.9541 26.9479 55.8722 26.6933C55.7872 26.4234 55.6901 26.132 55.5807 25.8191C55.4867 25.5032 55.3805 25.1658 55.2621 24.8069C55.1437 24.448 55.0299 24.1121 54.9205 23.7992C54.8235 23.4679 54.734 23.175 54.6521 22.9204C54.5702 22.6658 54.5094 22.4787 54.47 22.3591L54.4383 22.1981C54.3991 21.9988 54.4027 21.8149 54.4492 21.6465C54.511 21.4751 54.6493 21.3683 54.8639 21.3261C55.1092 21.2778 55.3205 21.3398 55.4976 21.5119C55.6748 21.6841 55.8228 21.9098 55.9414 22.189C56.0754 22.4652 56.1847 22.7781 56.2694 23.1277C56.3541 23.4773 56.4205 23.8146 56.4685 24.1396C56.5318 24.4615 56.5723 24.7481 56.5899 24.9995C56.6198 25.2325 56.6423 25.3873 56.6574 25.4639L56.757 25.9699C56.8022 26.1998 56.8443 26.4543 56.8833 26.7333C56.9346 26.9939 56.9752 27.2407 57.0051 27.4737C57.0503 27.7036 57.082 27.8646 57.1001 27.9566C56.8671 27.9865 56.6497 27.9338 56.4479 27.7983C56.2614 27.6598 56.1302 27.4786 56.0543 27.2547ZM60.9668 34.9829C60.7707 33.9864 60.5411 32.9408 60.2779 31.846C60.0301 30.7482 59.7731 29.6442 59.5069 28.5341C59.253 27.4056 59.0266 26.2956 58.8278 25.2041C58.6289 24.1126 58.4973 23.0795 58.433 22.1048C58.4606 22.0835 58.5281 22.0622 58.6354 22.0411C58.755 22.0017 58.8378 21.9774 58.8838 21.9683C59.0985 21.9261 59.2747 21.9313 59.4124 21.9838C59.5624 22.018 59.6601 22.15 59.7053 22.38C59.8833 23.2845 60.0702 24.2749 60.266 25.3511C60.4742 26.4089 60.6792 27.4913 60.881 28.5981C61.0952 29.6866 61.3079 30.7675 61.519 31.8406C61.7302 32.9138 61.937 33.8843 62.1396 34.7522C62.2063 35.0098 62.1858 35.189 62.0782 35.2898C61.989 35.4029 61.8601 35.476 61.6914 35.5092C61.5074 35.5454 61.3451 35.5296 61.2043 35.4617C61.0666 35.4092 60.9874 35.2496 60.9668 34.9829ZM57.2212 18.6169C57.185 18.4329 57.2222 18.2982 57.3327 18.2128C57.4433 18.1273 57.5753 18.0695 57.7286 18.0393C58.0352 17.979 58.2465 18.041 58.3623 18.2252C58.4782 18.4094 58.5618 18.6318 58.613 18.8924C58.5542 19.0792 58.4634 19.2245 58.3405 19.3283C58.2146 19.4167 58.072 19.4607 57.9126 19.4602C57.7656 19.4414 57.6233 19.3659 57.4858 19.2337C57.3637 19.0985 57.2755 18.8929 57.2212 18.6169ZM64.7239 34.4109C64.1481 32.3744 63.5875 30.3349 63.0423 28.2923C62.5094 26.2314 61.9461 24.0969 61.3524 21.8887C61.28 21.5208 61.4431 21.2976 61.8417 21.2192L62.0257 21.183C62.0717 21.1739 62.1374 21.2247 62.2229 21.3353C62.3083 21.4458 62.4149 21.6637 62.5426 21.989C62.6826 22.2958 62.8573 22.779 63.0667 23.4385C63.2884 24.0796 63.5661 24.9247 63.8999 25.9738C64.2337 27.0228 64.6356 28.3371 65.1057 29.9167C65.2225 28.8109 65.2764 27.7492 65.2673 26.7318C65.2582 25.7145 65.3209 24.7785 65.4553 23.924C65.5867 23.0541 65.8527 22.2613 66.2533 21.5455C66.6693 20.8267 67.3468 20.2236 68.286 19.7362C68.8561 19.7196 69.367 19.9694 69.8189 20.4856C70.2678 20.9865 70.6749 21.6389 71.0401 22.4429C71.4053 23.2469 71.7243 24.1396 71.997 25.1211C72.2667 26.0872 72.4982 27.021 72.6915 27.9225C72.8848 28.824 73.0524 29.6351 73.1941 30.3556C73.3329 31.0609 73.4478 31.5638 73.5388 31.8644C73.5169 31.9961 73.469 32.1169 73.3951 32.227C73.3213 32.3371 73.2275 32.4272 73.1139 32.4973C73.0126 32.5491 72.9068 32.5779 72.7965 32.5837C72.6831 32.5741 72.5669 32.5094 72.4478 32.3895C72.4146 32.2209 72.3314 31.879 72.1981 31.3638C72.0649 30.8485 71.9074 30.2505 71.7257 29.5696C71.541 28.8735 71.341 28.1405 71.1258 27.3706C70.923 26.5825 70.7307 25.848 70.549 25.1671C70.3795 24.4679 70.2282 23.8607 70.095 23.3455C69.9618 22.8303 69.8709 22.4899 69.8224 22.3242C69.3888 21.8203 69.0035 21.5617 68.6665 21.5484C68.3448 21.5321 68.0501 21.6936 67.7825 22.0329C67.5301 22.3692 67.3141 22.8496 67.1344 23.4742C66.9548 24.0987 66.8055 24.7969 66.6866 25.5688C66.5648 26.3253 66.4658 27.1171 66.3897 27.9442C66.3135 28.7714 66.2635 29.5695 66.2397 30.3385C66.2128 31.0923 66.1969 31.7802 66.1919 32.4022C66.1992 33.0059 66.2192 33.4717 66.2519 33.7997C66.227 33.9161 66.1485 34.043 66.0163 34.1805C65.8964 34.2996 65.7567 34.3988 65.5971 34.478C65.4528 34.5541 65.2948 34.6011 65.1232 34.619C64.9638 34.6185 64.8308 34.5491 64.7239 34.4109ZM75.3473 23.8169C75.286 23.829 75.2 23.8778 75.0895 23.9632C74.9759 24.0333 74.8576 24.1203 74.7347 24.2241C74.6241 24.3096 74.5135 24.395 74.403 24.4805C74.2924 24.5659 74.1911 24.6177 74.0991 24.6358C73.9458 24.666 73.8018 24.6625 73.6671 24.6253C73.5477 24.5851 73.4699 24.473 73.4337 24.289C73.4035 24.1357 73.4439 23.9765 73.5547 23.8113C73.6809 23.6432 73.83 23.4705 74.0022 23.2933C74.1743 23.1161 74.348 22.9466 74.5232 22.7848C74.6983 22.6229 74.8198 22.4716 74.8877 22.3308C74.8088 22.0916 74.6953 21.6362 74.5472 20.9646C74.3992 20.2931 74.2483 19.5265 74.0948 18.665C73.9535 17.7851 73.8307 16.8776 73.7263 15.9427C73.6373 15.0047 73.6063 14.1589 73.6331 13.4051C73.6723 12.633 73.7968 12.0114 74.0067 11.5401C74.2165 11.0689 74.5665 10.8646 75.0566 10.9275C75.3785 10.8641 75.6894 10.9065 75.9893 11.0545C76.2861 11.1872 76.5551 11.3811 76.7964 11.6362C77.0347 11.8759 77.233 12.1554 77.3914 12.4746C77.565 12.7907 77.679 13.0868 77.7333 13.3628C77.7635 13.5161 77.7583 13.6923 77.7179 13.8913C77.6897 14.072 77.5837 14.1805 77.3997 14.2167L77.3307 14.2302C77.3154 14.2333 77.2986 14.2286 77.2802 14.2163C76.7283 13.3535 76.2978 12.8251 75.9889 12.6311C75.6924 12.4187 75.4762 12.4533 75.3405 12.7348C75.2201 13.0132 75.1605 13.4788 75.1615 14.1315C75.1779 14.7812 75.2291 15.5276 75.3154 16.3705C75.3986 17.1981 75.5 18.0779 75.6197 19.0099C75.7364 19.9265 75.8409 20.7817 75.9335 21.5757C76.225 21.4387 76.4629 21.3123 76.6471 21.1964C76.8467 21.0775 77.0232 20.9631 77.1768 20.8533C77.3273 20.7281 77.464 20.6137 77.5869 20.5099C77.7068 20.3907 77.845 20.2839 78.0016 20.1894C78.2934 19.9727 78.6174 19.7577 78.9735 19.5443C79.3419 19.3126 79.7101 19.1605 80.0781 19.0881C80.1655 19.5327 80.1536 19.9173 80.0423 20.2417C79.9463 20.5632 79.7861 20.8415 79.5617 21.0768C79.3526 21.309 79.0961 21.5028 78.7922 21.6581C78.4854 21.7981 78.1693 21.932 77.8441 22.0597C77.5342 22.1843 77.2397 22.306 76.9604 22.4246C76.6812 22.5433 76.4433 22.6697 76.2468 22.8039C76.4889 23.7914 76.7221 24.6532 76.9466 25.3893C77.1864 26.1225 77.3942 26.7743 77.5702 27.3448C77.7615 27.9123 77.9207 28.4383 78.0479 28.9229C78.1874 29.3891 78.2809 29.8644 78.3284 30.3487C78.3496 30.456 78.3797 30.6093 78.4189 30.8086C78.4705 30.9896 78.499 31.175 78.5045 31.365C78.5254 31.552 78.5034 31.7236 78.4386 31.8796C78.3707 32.0204 78.2371 32.1104 78.0378 32.1496C77.8539 32.1858 77.7083 32.1746 77.6013 32.116C77.4912 32.0422 77.3952 31.8779 77.3132 31.6233C76.9769 30.3996 76.6936 29.3645 76.4634 28.518C76.2454 27.6532 76.0638 26.9325 75.9185 26.356C75.7702 25.7641 75.6629 25.2995 75.5965 24.9622L75.3884 23.9044C75.3763 23.8431 75.3626 23.8139 75.3473 23.8169ZM82.6981 27.9124C82.452 27.2283 82.2641 26.5566 82.1344 25.8973C82.0017 25.2228 81.9058 24.533 81.8467 23.828C81.803 23.12 81.7853 22.383 81.7939 21.6169C81.8147 20.8325 81.848 19.99 81.8937 19.0892C81.8605 18.9205 81.8763 18.7582 81.9412 18.6021C82.003 18.4307 82.1015 18.2839 82.2367 18.1618C82.3689 18.0243 82.5133 17.9083 82.6699 17.8138C82.8264 17.7193 82.9814 17.6569 83.1347 17.6268C83.472 17.5604 83.7997 17.6074 84.1179 17.7677C84.4361 17.9281 84.7327 18.1404 85.0076 18.4048C85.2979 18.6662 85.5544 18.9581 85.7771 19.2806C86.0121 19.5847 86.2074 19.8488 86.363 20.073C86.5912 20.5854 86.7962 21.1821 86.9779 21.8629C87.172 22.5254 87.3154 23.2138 87.4082 23.9281C87.5009 24.6424 87.5309 25.3611 87.498 26.0841C87.462 26.7919 87.3466 27.4596 87.1516 28.0871C86.9566 28.7147 86.6515 29.2684 86.2363 29.7482C85.8364 30.225 85.3159 30.5742 84.6748 30.7959C84.3222 30.8653 84.0313 30.8031 83.8021 30.6094C83.5698 30.4003 83.3745 30.1361 83.2162 29.8169C83.0701 29.4794 82.9548 29.1358 82.8701 28.7862C82.8007 28.4336 82.7434 28.1423 82.6981 27.9124ZM83.8574 27.6126C83.8875 27.7659 83.9162 27.9116 83.9433 28.0496C83.9858 28.1845 84.0283 28.3195 84.0708 28.4544C84.1256 28.5711 84.1834 28.703 84.2442 28.8503C84.3174 28.9792 84.4027 29.1296 84.5002 29.3015L84.6382 29.2744C85.0061 29.202 85.2963 29.0175 85.5086 28.7209C85.721 28.4243 85.8815 28.0663 85.99 27.6468C86.0956 27.212 86.1629 26.7449 86.1921 26.2455C86.2182 25.7308 86.2167 25.2375 86.1875 24.7655C86.1706 24.2751 86.1306 23.8291 86.0676 23.4275C86.0168 23.0075 85.9672 22.6749 85.919 22.4296L85.8285 21.9697C85.7893 21.7704 85.7379 21.5496 85.6743 21.3073C85.6077 21.0497 85.5257 20.7951 85.4284 20.5435C85.3435 20.2736 85.2416 20.0388 85.1227 19.8393C85.0008 19.6244 84.8649 19.46 84.7151 19.3462C84.5653 19.2324 84.3908 19.195 84.1915 19.2342C83.8331 19.1933 83.5463 19.2736 83.3312 19.4752C83.1314 19.6737 82.991 19.9721 82.9101 20.3702C82.8415 20.7499 82.8202 21.208 82.8461 21.7443C82.872 22.2807 82.9391 22.8646 83.0474 23.4962C83.1558 24.1278 83.2793 24.7962 83.4181 25.5015C83.5722 26.2037 83.7186 26.9074 83.8574 27.6126ZM91.3679 29.1207C91.3709 29.136 91.5138 29.0124 91.7966 28.7497C92.0946 28.4841 92.4343 28.1465 92.8155 27.7371C93.2091 27.3093 93.6058 26.857 94.0057 26.3802C94.4025 25.8881 94.7195 25.4356 94.9568 25.0226C95.194 24.6097 95.2962 24.2791 95.2633 24.0308C95.2426 23.7641 95.0025 23.6362 94.5428 23.647C93.9758 23.6789 93.5097 23.7786 93.1445 23.946C92.7947 24.1104 92.4785 24.2841 92.196 24.467C91.9135 24.65 91.6449 24.8223 91.39 24.9839C91.1505 25.1425 90.8668 25.2382 90.5388 25.2709C89.8642 25.4036 89.3559 25.2886 89.0138 24.926C88.6841 24.545 88.4483 23.9942 88.3065 23.2736C88.1647 22.5531 88.1915 21.8392 88.3867 21.1319C88.579 20.4093 88.8813 19.7606 89.2937 19.1858C89.7061 18.611 90.2148 18.1208 90.8198 17.7151C91.4217 17.2941 92.0676 17.0157 92.7575 16.88C93.0334 16.8257 93.2756 16.8019 93.484 16.8087C93.6923 16.8155 93.8267 16.9722 93.887 17.2788C93.9292 17.4934 93.878 17.7185 93.7332 17.954C93.5854 18.1742 93.3965 18.3069 93.1666 18.3521C93.1513 18.3552 93.1114 18.355 93.0471 18.3518C92.9797 18.3332 92.9109 18.3069 92.8405 18.273C92.7701 18.2391 92.7027 18.2205 92.6384 18.2172C92.571 18.1986 92.5297 18.1908 92.5144 18.1938C91.9966 18.1524 91.5349 18.3149 91.1293 18.6813C90.7237 19.0478 90.3836 19.5048 90.1092 20.0525C89.8471 20.5818 89.663 21.1435 89.557 21.7377C89.4479 22.3165 89.4356 22.8206 89.5201 23.2498C89.5533 23.4185 89.6111 23.5504 89.6935 23.6457C89.7883 23.7226 89.8938 23.7735 90.0102 23.7983C90.1419 23.8202 90.2782 23.8252 90.4192 23.8134C90.5725 23.7832 90.7258 23.7531 90.8792 23.7229C91.1858 23.6626 91.4834 23.5563 91.7719 23.4039C92.0757 23.2486 92.3612 23.081 92.6284 22.901C92.9109 22.718 93.1964 22.5504 93.4849 22.3981C93.7888 22.2427 94.1093 22.1319 94.4466 22.0655C94.5999 22.0353 94.7776 22.0482 94.9797 22.1039C95.1787 22.1444 95.3715 22.2339 95.558 22.3723C95.7415 22.4955 95.908 22.6538 96.0575 22.8473C96.2041 23.0255 96.3091 23.2358 96.3727 23.478C96.507 23.6746 96.5321 23.9642 96.4482 24.347C96.3796 24.7268 96.2388 25.1446 96.026 25.6005C95.8131 26.0565 95.5404 26.5321 95.2079 27.0275C94.8724 27.5076 94.5309 27.9569 94.1833 28.3757C93.8327 28.7791 93.4777 29.1196 93.1183 29.3974C92.762 29.6904 92.4443 29.8564 92.1653 29.8954C91.8587 29.9557 91.6566 29.9 91.5591 29.728C91.4769 29.5531 91.4132 29.3507 91.3679 29.1207Z" fill="#1E1E1E"/>
<path d="M115 4C120.167 10.6667 121.5 15 121.5 24.5C121.5 37.355 120.5 38.5 117.5 53" stroke="black"/>
</svg>
